<svg width="48" height="48" viewBox="0 0 48 48" fill="none" xmlns="http://www.w3.org/2000/svg">
<g clip-path="url(#clip0_4_66)">
<path d="M46 7.99999H37.3333V4.66666C37.3333 3.55832 36.4417 2.66666 35.3333 2.66666H12.6667C11.5583 2.66666 10.6667 3.55832 10.6667 4.66666V7.99999H2C0.891667 7.99999 0 8.89166 0 9.99999V14.6667C0 17.6417 1.875 20.7 5.15833 23.0583C7.78333 24.95 10.975 26.15 14.325 26.5333C16.9417 30.875 20 32.6667 20 32.6667V38.6667H16C13.0583 38.6667 10.6667 40.3917 10.6667 43.3333V44.3333C10.6667 44.8833 11.1167 45.3333 11.6667 45.3333H36.3333C36.8833 45.3333 37.3333 44.8833 37.3333 44.3333V43.3333C37.3333 40.3917 34.9417 38.6667 32 38.6667H28V32.6667C28 32.6667 31.0583 30.875 33.675 26.5333C37.0333 26.15 40.225 24.95 42.8417 23.0583C46.1167 20.7 48 17.6417 48 14.6667V9.99999C48 8.89166 47.1083 7.99999 46 7.99999ZM8.275 18.7333C6.24167 17.2667 5.33333 15.6333 5.33333 14.6667V13.3333H10.6833C10.7667 16.05 11.1667 18.4333 11.75 20.5167C10.4917 20.0833 9.31667 19.4833 8.275 18.7333ZM42.6667 14.6667C42.6667 16.0083 41.1917 17.675 39.725 18.7333C38.6833 19.4833 37.5 20.0833 36.2417 20.5167C36.825 18.4333 37.225 16.05 37.3083 13.3333H42.6667V14.6667Z" fill="#3B82F6"/>
</g>
<defs>
<clipPath id="clip0_4_66">
<rect width="48" height="48" fill="white"/>
</clipPath>
</defs>
</svg>
