<svg width="48" height="48" viewBox="0 0 48 48" fill="none" xmlns="http://www.w3.org/2000/svg">
<g clip-path="url(#clip0_4_80)">
<path d="M34.6667 18.6667C34.6667 11.3 26.9083 5.33334 17.3333 5.33334C7.75833 5.33334 0 11.3 0 18.6667C0 21.525 1.175 24.1583 3.16667 26.3333C2.05 28.85 0.208333 30.85 0.183333 30.875C0 31.0667 -0.05 31.35 0.0583333 31.6C0.166667 31.85 0.4 32 0.666667 32C3.71667 32 6.24167 30.975 8.05833 29.9167C10.7417 31.225 13.9167 32 17.3333 32C26.9083 32 34.6667 26.0333 34.6667 18.6667ZM44.8333 37C46.825 34.8333 48 32.1917 48 29.3333C48 23.7583 43.5417 18.9833 37.225 16.9917C37.3 17.5417 37.3333 18.1 37.3333 18.6667C37.3333 27.4917 28.3583 34.6667 17.3333 34.6667C16.4333 34.6667 15.5583 34.6 14.6917 34.5083C17.3167 39.3 23.4833 42.6667 30.6667 42.6667C34.0833 42.6667 37.2583 41.9 39.9417 40.5833C41.7583 41.6417 44.2833 42.6667 47.3333 42.6667C47.6 42.6667 47.8417 42.5083 47.9417 42.2667C48.05 42.025 48 41.7417 47.8167 41.5417C47.7917 41.5167 45.95 39.525 44.8333 37Z" fill="#3B82F6"/>
</g>
<defs>
<clipPath id="clip0_4_80">
<rect width="48" height="48" fill="white"/>
</clipPath>
</defs>
</svg>
