<svg width="48" height="48" viewBox="0 0 48 48" fill="none" xmlns="http://www.w3.org/2000/svg">
<g clip-path="url(#clip0_4_73)">
<path d="M42.9958 23.9925L47.3069 19.7733C48.592 18.5567 47.9928 16.3946 46.3072 15.9915L40.4337 14.4924L42.0894 8.67854C42.5573 7.00623 40.9805 5.42889 39.3087 5.89689L33.4968 7.55317L31.9983 1.67776C31.6017 0.0184799 29.4155 -0.588364 28.2178 0.677636L24 5.0222L19.7823 0.67773C18.5982 -0.573926 16.4029 -0.000457704 16.0018 1.67785L14.5033 7.55326L8.69128 5.89698C7.01906 5.42879 5.44275 7.0067 5.91056 8.67864L7.56628 14.4925L1.69284 15.9916C0.00646555 16.3948 -0.591565 18.5573 0.692997 19.7733L5.00409 23.9925L0.692997 28.2116C-0.592128 29.4282 0.00712198 31.5903 1.69275 31.9934L7.56618 33.4925L5.91047 39.3064C5.44256 40.9787 7.01943 42.556 8.69118 42.088L14.5031 40.4318L16.0016 46.3072C16.4178 48.0486 18.5981 48.5589 19.7821 47.3073L24 42.9947L28.2177 47.3073C29.3896 48.5718 31.5915 48.0091 31.9982 46.3072L33.4967 40.4318L39.3086 42.088C40.9807 42.5562 42.5572 40.9783 42.0893 39.3064L40.4336 33.4925L46.3071 31.9934C47.9933 31.5901 48.5914 29.4278 47.3068 28.2116L42.9958 23.9925Z" fill="#3B82F6"/>
</g>
<defs>
<clipPath id="clip0_4_73">
<rect width="48" height="48" fill="white"/>
</clipPath>
</defs>
</svg>
