<svg width="48" height="34" viewBox="0 0 48 34" fill="none" xmlns="http://www.w3.org/2000/svg">
<path d="M14.4 17C19.0425 17 22.8 13.2425 22.8 8.60001C22.8 3.95751 19.0425 0.200012 14.4 0.200012C9.7575 0.200012 6 3.95751 6 8.60001C6 13.2425 9.7575 17 14.4 17ZM20.16 19.4H19.5375C17.9775 20.15 16.245 20.6 14.4 20.6C12.555 20.6 10.83 20.15 9.2625 19.4H8.64C3.87 19.4 0 23.27 0 28.04V30.2C0 32.1875 1.6125 33.8 3.6 33.8H25.2C27.1875 33.8 28.8 32.1875 28.8 30.2V28.04C28.8 23.27 24.93 19.4 20.16 19.4ZM36 17C39.975 17 43.2 13.775 43.2 9.80001C43.2 5.82501 39.975 2.60001 36 2.60001C32.025 2.60001 28.8 5.82501 28.8 9.80001C28.8 13.775 32.025 17 36 17ZM39.6 19.4H39.315C38.2725 19.76 37.17 20 36 20C34.83 20 33.7275 19.76 32.685 19.4H32.4C30.87 19.4 29.46 19.8425 28.2225 20.555C30.0525 22.5275 31.2 25.145 31.2 28.04V30.92C31.2 31.085 31.1625 31.2425 31.155 31.4H44.4C46.3875 31.4 48 29.7875 48 27.8C48 23.1575 44.2425 19.4 39.6 19.4Z" fill="#3B82F6"/>
</svg>
